<svg width="278" height="44" viewBox="0 0 278 44" fill="none" xmlns="http://www.w3.org/2000/svg">
<path d="M3.62298 7.82109C3.62298 5.50395 3.33271 3.86264 2.84893 3.09026C2.36514 2.31788 1.49433 1.83514 0.333252 1.64205V1.25586H12.4278V1.7386C11.2668 1.83514 10.4927 2.22133 9.91216 2.99371C9.42838 3.66955 9.13811 5.2143 9.13811 7.4349V13.6139L13.4922 10.1382C15.8143 8.20727 17.4592 6.75906 18.4268 5.69704C19.6846 4.44193 20.2651 3.47645 20.2651 2.89717C20.2651 2.41443 20.1684 2.12479 19.9749 2.02824C19.7813 1.83514 19.3943 1.7386 18.9105 1.7386V1.25586H31.1019V1.7386C29.3603 1.7386 27.7154 2.22133 25.9738 3.28336C25.49 3.573 24.0386 4.63502 21.6197 6.66252L17.8462 9.75203C20.2651 12.0692 22.4905 14.676 24.3289 17.6689C26.0705 20.3723 27.6186 23.4618 28.9732 26.8409L29.9408 29.1581C30.6181 30.7994 31.1019 31.7649 31.2954 32.151C31.9727 33.2131 32.8435 33.7923 33.8111 33.9854V34.4682H22.7808V33.9854C23.9419 33.7923 24.5224 33.1165 24.5224 32.0545C24.5224 30.7994 24.0386 29.1581 23.1678 26.9375C22.4905 25.3927 21.7165 23.7514 20.7489 22.1101C19.7813 20.4688 18.8138 18.924 17.6527 17.4758C16.5884 16.0276 15.3305 14.5794 13.8792 13.0346L9.04135 16.8965V27.903C9.04135 29.8339 9.13811 31.1856 9.42838 31.9579C9.91216 33.2131 10.8797 33.9854 12.3311 34.082V34.5647H0.333252V34.082C1.7846 33.8889 2.65541 33.1165 3.1392 32.0545C3.42947 31.2821 3.62298 30.027 3.62298 28.2891V7.82109Z" fill="#FF3D00"/>
<path d="M50.3563 15.4485C50.5498 14.7726 50.8401 14.0003 51.0336 13.3244C51.2271 12.5521 51.4206 11.9728 51.4206 11.5866C51.4206 11.1038 51.3239 10.7177 51.0336 10.428C50.7433 10.1384 50.2596 9.94527 49.5823 9.94527V9.55908H57.3228V10.0418C56.3552 10.1384 55.4844 10.7177 54.9039 11.6831C54.6136 12.1659 54.2266 13.0348 53.7428 14.5795L45.9055 37.0751C44.7444 40.4543 43.3898 42.7714 41.9385 43.8334C40.6806 44.7989 39.1325 45.2816 37.1974 45.2816C36.3266 45.2816 35.4558 45.0885 34.585 44.7989C33.7141 44.5093 32.9401 44.0265 32.166 43.4472L35.0687 36.5924L35.4558 36.882C35.359 37.2682 35.2623 37.6544 35.2623 38.1371C35.2623 39.1992 35.5525 40.0681 36.0363 40.8405C36.6169 41.6128 37.2941 41.999 38.2617 41.999C39.7131 41.999 40.8741 41.3232 41.745 39.875C42.4223 38.6199 42.8093 37.2682 42.8093 35.6269C42.8093 34.5649 42.519 33.2132 42.0352 31.765C41.8417 31.1857 41.2612 29.9306 40.4871 27.9996L34.585 14.483C34.0044 13.0348 33.5206 12.1659 33.2304 11.6831C32.5531 10.7177 31.779 10.2349 30.9082 10.2349V9.55908H41.0677V10.0418C40.4871 10.1384 40.1001 10.2349 39.8098 10.5246C39.5196 10.8142 39.4228 11.1038 39.4228 11.5866C39.4228 11.9728 39.5196 12.4555 39.7131 12.9382C39.9066 13.5175 40.1001 13.9037 40.1968 14.1934L46.099 28.0962L50.3563 15.4485Z" fill="#FF3D00"/>
<path d="M79.8672 30.5099C80.3509 31.1857 80.9315 31.9581 81.4153 32.6339C82.0926 33.4063 82.8666 33.889 83.5439 33.9856V34.4683H73.0942V33.9856C74.1585 33.889 74.6423 33.4063 74.6423 32.7305C74.6423 32.2477 74.352 31.5719 73.8682 30.703C73.3845 30.0271 72.9974 29.4479 72.7072 29.0617L68.9337 23.3654L65.2569 27.9031C63.225 30.5099 62.2574 32.1512 62.2574 32.827C62.2574 33.4063 62.7412 33.7925 63.8056 33.9856V34.4683H55.9683V33.9856C56.5488 33.889 57.1293 33.5994 57.6131 33.2132C58.0969 32.827 58.871 31.9581 59.9353 30.6064L67.4823 21.3379L63.225 15.2554C61.5801 12.9382 60.6126 11.5866 60.3223 11.2969C59.4515 10.428 58.6774 10.0418 58.0002 10.0418V9.55908H68.8369V10.0418C67.6758 10.1384 67.192 10.6211 67.192 11.3935C67.192 11.7797 67.3855 12.359 67.7726 12.9382C68.0628 13.421 68.3531 14.0003 68.9337 14.6761L70.8688 17.476L73.0942 14.483C73.7715 13.5175 74.2553 12.9382 74.352 12.6486C74.7391 11.9728 74.9326 11.3935 74.9326 11.0073C74.9326 10.3315 74.4488 10.0418 73.3845 10.0418V9.55908H81.8023V10.0418C80.6412 10.1384 79.3834 10.8142 78.1255 11.9728C77.8353 12.2624 76.8677 13.421 75.3196 15.3519L71.9331 19.4069L79.8672 30.5099Z" fill="#FF3D00"/>
<path d="M104.927 19.9862H92.9293V28.1927C92.9293 30.5099 93.1228 32.1512 93.6066 32.827C94.0904 33.5994 94.8645 33.9856 95.9288 33.9856V34.4683H84.8018V33.9856C86.1564 33.9856 87.0272 33.4063 87.4142 32.1512C87.7045 31.3788 87.8012 30.0271 87.8012 28.1927V15.7381C87.8012 13.421 87.6077 11.8762 87.1239 11.1038C86.6401 10.3315 85.8661 9.94527 84.8018 9.94527V9.55908H96.0255V10.0418C94.6709 10.0418 93.8001 10.6211 93.4131 11.8762C93.1228 12.6486 93.0261 13.9037 93.0261 15.8347V17.8622H104.927V15.8347C104.927 13.5175 104.734 11.9728 104.25 11.2004C103.766 10.428 102.992 10.1384 101.928 10.1384V9.55908H113.151V10.0418C111.797 10.0418 110.926 10.6211 110.539 11.8762C110.249 12.6486 110.152 14.0003 110.152 15.8347V28.2893C110.152 30.6064 110.346 32.1512 110.829 32.9236C111.313 33.6959 112.087 34.0821 113.151 34.0821V34.5649H101.928V34.0821C103.282 34.0821 104.153 33.5028 104.54 32.2477C104.83 31.4753 104.927 30.1237 104.927 28.2893V19.9862Z" fill="#FF3D00"/>
<path d="M135.502 15.6416L123.601 26.0687V28.2893C123.601 30.6064 123.795 32.1512 124.279 32.9236C124.762 33.6959 125.536 34.0821 126.601 34.0821V34.5649H115.377V34.0821C116.732 33.9856 117.602 33.3098 117.989 32.1512C118.28 31.3788 118.376 30.1237 118.376 28.3858V15.7381C118.376 13.9037 118.28 12.6486 117.989 11.9728C117.506 10.7177 116.635 10.0418 115.28 9.94527V9.55908H126.504V10.0418C125.149 10.0418 124.279 10.6211 123.892 11.8762C123.601 12.6486 123.505 14.0003 123.505 15.8347V23.2688L135.406 12.8417C135.309 12.2624 135.212 11.8762 135.019 11.5866C134.535 10.7177 133.567 10.1384 132.309 10.0418V9.55908H143.533V10.0418C142.179 10.0418 141.308 10.6211 140.921 11.8762C140.631 12.6486 140.534 14.0003 140.534 15.8347V28.2893C140.534 30.6064 140.727 32.1512 141.211 32.9236C141.695 33.6959 142.469 34.0821 143.533 34.0821V34.5649H132.309V34.0821C133.664 33.9856 134.535 33.3098 134.922 32.1512C135.212 31.3788 135.309 30.1237 135.309 28.3858V15.6416H135.502Z" fill="#FF3D00"/>
<path d="M175.85 34.8542C175.56 34.7577 175.269 34.7577 174.882 34.7577C174.592 34.7577 174.399 34.7577 174.205 34.7577L168.109 35.0473C165.11 35.0473 162.498 34.7577 160.272 34.0819C157.66 33.3095 155.338 32.1509 153.306 30.5096C151.177 28.7718 149.532 26.5512 148.468 24.1375C147.404 21.6272 146.823 19.0205 146.823 16.124C146.823 13.8069 147.21 11.6829 148.081 9.55882C148.952 7.53132 150.209 5.79347 151.854 4.34526C153.499 2.99359 155.434 1.93157 157.563 1.35228C159.692 0.773 162.014 0.483358 164.433 0.483358L170.045 0.966095L171.689 1.15919C172.173 1.15919 172.56 1.06264 172.947 0.966095C173.238 0.773 173.528 0.579905 173.721 0.097168L176.043 9.65536L175.656 9.84846C174.786 7.72442 173.238 6.17966 171.302 5.02109C169.271 3.86252 167.045 3.28323 164.626 3.28323C162.885 3.28323 161.24 3.57288 159.982 4.05561C158.627 4.53835 157.466 5.40728 156.402 6.66239C155.338 7.91751 154.564 9.36572 153.983 10.9105C153.402 12.5518 153.112 14.1931 153.112 15.8344C153.112 20.3721 154.467 24.234 157.273 27.4201C160.175 30.7993 163.852 32.4406 168.303 32.4406C170.819 32.4406 173.044 31.7647 174.979 30.3165C176.818 28.9649 178.366 27.0339 179.527 24.5237L180.01 24.7168L175.85 34.8542Z" fill="#FF3D00"/>
<path d="M200.716 15.6416L188.815 26.0687V28.2893C188.815 30.6064 189.009 32.1512 189.493 32.9236C189.976 33.6959 190.75 34.0821 191.815 34.0821V34.5649H180.591V34.0821C181.945 33.9856 182.816 33.3098 183.203 32.1512C183.494 31.3788 183.59 30.1237 183.59 28.3858V15.7381C183.59 13.9037 183.494 12.6486 183.203 11.9728C182.72 10.7177 181.849 10.0418 180.494 9.94527V9.55908H191.718V10.0418C190.363 10.0418 189.493 10.6211 189.105 11.8762C188.815 12.6486 188.718 14.0003 188.718 15.8347V23.2688L200.62 12.8417C200.523 12.2624 200.426 11.8762 200.233 11.5866C199.749 10.7177 198.781 10.1384 197.523 10.0418V9.55908H208.747V10.0418C207.392 10.0418 206.522 10.6211 206.135 11.8762C205.844 12.6486 205.748 14.0003 205.748 15.8347V28.2893C205.748 30.6064 205.941 32.1512 206.425 32.9236C206.909 33.6959 207.683 34.0821 208.747 34.0821V34.5649H197.717V34.0821C199.071 33.9856 199.942 33.3098 200.329 32.1512C200.62 31.3788 200.716 30.1237 200.716 28.3858V15.6416Z" fill="#FF3D00"/>
<path d="M224.905 28.1927C224.905 30.1236 225.002 31.3787 225.292 32.0546C225.776 33.3097 226.744 33.889 228.195 33.889V34.3717H216.488V33.889C217.939 33.889 218.81 33.2131 219.293 31.958C219.584 31.1856 219.777 29.834 219.777 28.0961V11.8761C216.778 11.8761 214.552 12.4554 213.101 13.614C211.843 14.5795 210.682 16.4139 209.618 19.0206L209.134 18.8276L211.65 8.78662C211.843 9.07626 212.133 9.26936 212.424 9.26936C212.714 9.36591 213.101 9.36591 213.682 9.36591H214.649H230.13H231.098C231.582 9.36591 231.969 9.36591 232.356 9.26936C232.646 9.17281 232.936 8.97972 233.13 8.78662L235.645 18.8276L235.162 19.0206C234.194 16.4139 233.033 14.676 231.678 13.614C230.13 12.4554 227.905 11.8761 225.002 11.8761V28.1927H224.905Z" fill="#FF3D00"/>
<path d="M255.868 15.6416L243.967 26.0687V28.2893C243.967 30.6064 244.16 32.1512 244.644 32.9236C245.128 33.6959 245.902 34.0821 246.966 34.0821V34.5649H235.742V34.0821C237.097 33.9856 237.968 33.3098 238.355 32.1512C238.645 31.3788 238.742 30.1237 238.742 28.3858V15.7381C238.742 13.9037 238.645 12.6486 238.355 11.9728C237.871 10.7177 237 10.0418 235.646 9.94527V9.55908H246.869V10.0418C245.515 10.0418 244.644 10.6211 244.257 11.8762C243.967 12.6486 243.87 14.0003 243.87 15.8347V23.2688L255.771 12.8417C255.674 12.2624 255.577 11.8762 255.384 11.5866C254.9 10.7177 254.029 10.1384 252.675 10.0418V9.55908H263.898V10.0418C262.544 10.0418 261.673 10.6211 261.286 11.8762C260.996 12.6486 260.899 14.0003 260.899 15.8347V28.2893C260.899 30.6064 261.092 32.1512 261.576 32.9236C262.06 33.6959 262.834 34.0821 263.898 34.0821V34.5649H252.868V34.0821C254.223 33.9856 255.094 33.3098 255.481 32.1512C255.771 31.3788 255.868 30.1237 255.868 28.3858V15.6416Z" fill="#FF3D00"/>
<path d="M272.8 12.7447C270.671 12.7447 268.833 11.0069 268.833 8.88281C268.833 6.66222 270.671 5.02091 272.8 5.02091C274.929 5.02091 276.67 6.75877 276.67 8.88281C276.67 11.0069 274.929 12.7447 272.8 12.7447ZM272.8 13.5171C275.412 13.5171 277.444 11.4896 277.444 8.88281C277.444 6.27603 275.412 4.24854 272.8 4.24854C270.187 4.24854 268.156 6.27603 268.156 8.88281C268.156 11.4896 270.187 13.5171 272.8 13.5171ZM273.477 9.07591C274.348 9.07591 275.025 8.68972 275.025 7.72424C275.025 6.66222 274.154 6.37258 273.187 6.37258H270.961V11.393H271.639V9.07591H272.51L274.058 11.393H274.928L273.477 9.07591ZM271.736 8.30353V7.04841H273.09C273.671 7.04841 274.348 7.14496 274.348 7.6277C274.348 8.40008 273.284 8.30353 272.606 8.30353H271.736Z" fill="#FF3D00"/>
</svg>
