<?xml version="1.0" encoding="UTF-8" standalone="no"?>
<!DOCTYPE svg PUBLIC "-//W3C//DTD SVG 1.1//EN" "http://www.w3.org/Graphics/SVG/1.1/DTD/svg11.dtd">
<svg version="1.1" xmlns="http://www.w3.org/2000/svg" xmlns:xlink="http://www.w3.org/1999/xlink" preserveAspectRatio="xMidYMid meet" viewBox="144.99319925040558 45.35294117647061 324.0027010209409 388" width="12" height="45"><defs><path d="M290 62.35C290 83.63 290 190.03 290 381.54C220.15 308.21 181.35 267.47 173.58 259.32C167.5 252.93 157.38 252.66 150.96 258.77C144.56 264.86 144.31 274.98 150.41 281.38C163.7 295.34 270.07 407.02 283.37 420.98C289.42 427.02 297.45 430.35 306 430.35C314.54 430.35 322.58 427.02 328.9 420.7C342.16 406.77 448.32 295.32 461.58 281.38C467.68 274.98 467.42 264.86 461.03 258.77C454.64 252.66 444.51 252.92 438.42 259.32C430.65 267.5 391.85 308.42 322 382.06C322 190.23 322 83.67 322 62.35C322 53.52 314.83 46.35 306 46.35C297.17 46.35 290 53.52 290 62.35Z" id="d3qGn8EfAk"></path></defs><g><g><use xlink:href="#d3qGn8EfAk" opacity="1" fill="#ffffff" fill-opacity="1"></use><g><use xlink:href="#d3qGn8EfAk" opacity="1" fill-opacity="0" stroke="#000000" stroke-width="1" stroke-opacity="0"></use></g></g></g></svg>